<svg xmlns="http://www.w3.org/2000/svg" viewBox="0 0 196.26 299.55"><defs><style>.cls-1{fill:#ccc;}.cls-1,.cls-2,.cls-3,.cls-4{stroke:#3700ff;}.cls-1,.cls-2,.cls-3,.cls-4,.cls-5{stroke-miterlimit:10;stroke-width:0.5px;}.cls-3{fill:#212121;}.cls-4{fill:#828282;}.cls-5{fill:none;stroke:#cb0b00;}.cls-6{fill:#fff;}</style></defs><g id="Layer_2" data-name="Layer 2"><g id="Layer_2-2" data-name="Layer 2"><path class="cls-1" d="M195.61,106.93h.4V265c0,.11,0,.21,0,.32-.48,18.8-44,34-97.67,34S1.14,284.1.66,265.3c0-.11,0-.21,0-.32v-158q-.4-4.35-.4-8.8a97.88,97.88,0,0,1,195.76,0Q196,102.59,195.61,106.93Z"/><ellipse class="cls-2" cx="149.11" cy="98.19" rx="44.82" ry="64.73"/><ellipse class="cls-1" cx="149.11" cy="98.19" rx="32.68" ry="47.2"/><ellipse class="cls-3" cx="150.11" cy="98.19" rx="30.63" ry="44.24"/><ellipse class="cls-2" cx="157" cy="99.23" rx="16.51" ry="21.57"/><ellipse class="cls-3" cx="156" cy="98.71" rx="13.4" ry="18.02"/><ellipse class="cls-2" cx="156" cy="98.71" rx="9.25" ry="12.45"/><ellipse class="cls-2" cx="154.21" cy="98.71" rx="1.79" ry="2.41"/><ellipse class="cls-4" cx="154.48" cy="98.19" rx="0.62" ry="0.84"/><path class="cls-5" d="M.66,265.3h0V265C.65,265.09.65,265.19.66,265.3Z"/><path class="cls-5" d="M196,265v.32h0C196,265.19,196,265.09,196,265Z"/><path class="cls-6" d="M148.21,41.46A32.12,32.12,0,0,1,158.27,43a34.27,34.27,0,0,1,9.1,4.63A45.64,45.64,0,0,1,180.58,63a69.28,69.28,0,0,1,6.81,19.22,93,93,0,0,1,1.45,10.1c.26,3.39.36,6.79.33,10.19a105,105,0,0,0-2.28-20.18,70.73,70.73,0,0,0-6.89-19A45.77,45.77,0,0,0,167.07,48,32.69,32.69,0,0,0,148.21,41.46Z"/></g></g></svg>