<svg xmlns="http://www.w3.org/2000/svg" viewBox="0 0 311.72 650.11"><defs><style>.cls-1{fill:#232323;}.cls-2{fill:#d3d3d3;}.cls-11,.cls-2,.cls-3,.cls-5,.cls-6,.cls-7,.cls-8,.cls-9{stroke:#ffff10;stroke-miterlimit:10;}.cls-2,.cls-3,.cls-5,.cls-6,.cls-7,.cls-8,.cls-9{stroke-width:0.37px;}.cls-3{fill:#303030;}.cls-4{fill:#4f4f4f;}.cls-5{fill:#4c4c4c;}.cls-6{fill:#1e1e1e;}.cls-7{fill:#0f0f0f;}.cls-9{fill:none;}.cls-10{fill:#eaeaea;opacity:0.55;}.cls-11{fill:#a5a5a5;stroke-width:0.11px;}.cls-12{fill:#fff;}</style></defs><g id="Layer_2" data-name="Layer 2"><g id="Layer_2-2" data-name="Layer 2"><path class="cls-1" d="M7.23,641.59l-2.94-.11A4.46,4.46,0,0,1,0,637V14.16A4.46,4.46,0,0,1,4.27,9.7l2-.08Z"/><path class="cls-1" d="M213.24.86,20.9,9l1.88,633.19L214,649.57ZM110.44,559.07c-38.52,0-69.75-36-69.75-80.5s31.23-80.5,69.75-80.5,69.75,36,69.75,80.5S149,559.07,110.44,559.07Zm0-300.69c-40.76,0-73.8-38.14-73.8-85.18S69.68,88,110.44,88s73.8,38.14,73.8,85.18S151.2,258.38,110.44,258.38Z"/><polygon class="cls-1" points="22.78 642.19 7.23 641.59 6.27 9.62 20.9 9 22.78 642.19"/><ellipse class="cls-2" cx="110.44" cy="478.57" rx="69.75" ry="80.5"/><ellipse class="cls-3" cx="110.44" cy="173.2" rx="73.8" ry="85.18"/><path class="cls-4" d="M239.24,650q-7.78.27-15.59,0l-9.65-.37L213.24.86,228.08.23c2.79-.11,5.59-.19,8.37-.22h0Z"/><path d="M311.72,9.7v628a4.46,4.46,0,0,1-3.89,4.42l-47.91,6.16q-10.31,1.32-20.68,1.66L236.48,0a259.44,259.44,0,0,1,26.74,1.11l44.45,4.14A4.46,4.46,0,0,1,311.72,9.7Z"/><ellipse class="cls-3" cx="110.44" cy="478.57" rx="52.64" ry="60.75"/><ellipse cx="110.44" cy="173.2" rx="73.8" ry="85.18"/><ellipse class="cls-2" cx="112.26" cy="171.4" rx="43.52" ry="49.93"/><ellipse class="cls-3" cx="112.26" cy="171.4" rx="41.85" ry="48.01"/><ellipse class="cls-5" cx="110.44" cy="478.57" rx="52.64" ry="60.75"/><ellipse class="cls-6" cx="112.26" cy="171.4" rx="30.49" ry="34.97"/><ellipse class="cls-7" cx="114.06" cy="170.54" rx="12.61" ry="14.46"/><ellipse class="cls-8" cx="115.54" cy="170.54" rx="9.75" ry="10.75"/><ellipse class="cls-8" cx="115.54" cy="170.54" rx="2.77" ry="3.06"/><path class="cls-1" d="M131.76,490.33l-2.56-3.69a14.7,14.7,0,0,1-2.45-8.27v-6.91c0-10-6.26-18.24-14.28-19.47v-3.42a2.08,2.08,0,1,0-4.1,0V452c-8,1.23-14.29,9.5-14.29,19.47v6.91a14.77,14.77,0,0,1-2.44,8.27l-2.51,3.69a7.42,7.42,0,0,0-.68,6.83,5.35,5.35,0,0,0,4.84,3.69h7.85c.46,5.74,4.44,10.19,9.33,10.19s8.88-4.52,9.34-10.19h7.85a5.35,5.35,0,0,0,4.84-3.69A7.83,7.83,0,0,0,131.76,490.33Z"/><line class="cls-9" x1="101.14" y1="500.85" x2="119.81" y2="500.85"/><polygon class="cls-10" points="22.78 642.19 7.23 641.59 6.27 9.62 20.9 9 22.78 642.19"/><ellipse class="cls-11" cx="116.15" cy="170.54" rx="0.8" ry="0.88"/><path class="cls-12" d="M110.44,96.9a58.31,58.31,0,0,1,13.92,1.48,59.85,59.85,0,0,1,13.17,4.84,67.22,67.22,0,0,1,21.63,17.71,78.55,78.55,0,0,1,13.27,24.64,86.61,86.61,0,0,1,3.22,13.66,90.81,90.81,0,0,1,.9,14,89.87,89.87,0,0,0-1.34-13.9,84.94,84.94,0,0,0-3.44-13.51,79.14,79.14,0,0,0-13.31-24.3,67.73,67.73,0,0,0-21.25-17.67,60,60,0,0,0-13-5A57.83,57.83,0,0,0,110.44,96.9Z"/></g></g></svg>