<svg xmlns="http://www.w3.org/2000/svg" viewBox="0 0 617.87 467.8"><defs><style>.cls-1{fill:none;stroke:#0019ff;stroke-width:4.5px;}.cls-1,.cls-2,.cls-3,.cls-4,.cls-5,.cls-6{stroke-miterlimit:10;}.cls-2{fill:#5b5b5b;}.cls-2,.cls-3,.cls-4,.cls-5,.cls-6{stroke:#3700ff;stroke-width:0.5px;}.cls-3{fill:#ccc;}.cls-4,.cls-6{fill:#dbdbdb;}.cls-5{fill:#212121;}.cls-6{opacity:0.43;}</style></defs><g id="Layer_2" data-name="Layer 2"><g id="Layer_2-2" data-name="Layer 2"><path class="cls-1" d="M552.43,434.41v-5.29A31.15,31.15,0,0,1,552.43,434.41Z"/><path class="cls-2" d="M552.43,434.41a37.33,37.33,0,0,1-27.59,33.14H112.08l-13,0a34,34,0,0,1-33.76-29.95V410.77h.31a26.33,26.33,0,0,0,2,9.6A26.89,26.89,0,0,0,92.43,437.1l429.16,1.37a30.29,30.29,0,0,0,28.65-20.09,29.89,29.89,0,0,0,1.67-7.61l.12,5.49,0,.82Z"/><path class="cls-3" d="M335,370.83l-1.34-67.5s0,0,0-.08l0-1.72c-.43-4-3.37-7.52-7.85-10a25.21,25.21,0,0,0-3.35-1.58,35.4,35.4,0,0,0-12.84-2.3c-12,0-22,5.46-23.81,12.6l-.1,4.26-.8,34.32-.16,7-.59,25.6a2.42,2.42,0,0,0,0,.38l0,.6c.12,7.88,9.53,14.39,21.76,15.51l6.8,0c12.17-.89,21.7-7.11,22.41-14.81ZM170.57,265.33l0,.29h5.84l0-.29Z"/><path class="cls-4" d="M551.91,410.77a29.89,29.89,0,0,1-1.67,7.61,30.29,30.29,0,0,1-28.65,20.09L92.43,437.1A26.89,26.89,0,0,1,67.6,420.37a26.33,26.33,0,0,1-2-9.6,27.1,27.1,0,0,1,1-7.61l20.64-75.73,2.2-8,4.28-15.7.06-.25a51.74,51.74,0,0,1,49.83-38.1l21.54,0,5.43,0,0,.29h5.84l0-.29h6l5,0L431.57,265l3.43,0h13.61l3.21,0h3.47l19.24,0a52.07,52.07,0,0,1,50.37,38.53L551,400.26A30.61,30.61,0,0,1,551.91,410.77Z"/><path class="cls-1" d="M58.61,407.66c-.5,2.24,0,3.75.49,6.27,1.14,5.94,1.45,9,.77,10.84a7.07,7.07,0,0,1-2.71,3.35l-6.08.77a10.78,10.78,0,0,1-12-9.37l-4.57-37.19c2.93,5.33,7.15,8.91,11.44,9.3,6.2.58,14.15-5.44,17.56-15.78l2.13,19.82a45.18,45.18,0,0,1-3.39,5.75C60.36,404.09,59.12,405.24,58.61,407.66Z"/><path class="cls-4" d="M63.51,375.85C60.1,386.19,52.15,392.21,46,391.63c-4.29-.39-8.51-4-11.44-9.3L.29,104.52A5.94,5.94,0,0,1,5.47,97.9L22.9,95.75a10.26,10.26,0,0,1,11.42,8.91Z"/><ellipse class="cls-1" cx="47.63" cy="415.47" rx="2.63" ry="2.17"/><path class="cls-1" d="M59.51,416.9l6.46.18s-1.84-11.32-1.3-13.28a73.21,73.21,0,0,0,1-8.13"/><path class="cls-4" d="M91.6,281c-3.45,8-10,12.62-15.25,12.22-3.55-.27-7.21-2.89-10-7.05L40.73,33.34a4,4,0,0,1,3.6-4.3L60,27.59A8.36,8.36,0,0,1,69,35.12Z"/><path class="cls-1" d="M93.38,300.31a7.71,7.71,0,0,1-2.17,2.56,7.09,7.09,0,0,0-1.84,1.7A8.4,8.4,0,0,0,87.81,310a9.38,9.38,0,0,0,.65,2.88,17.83,17.83,0,0,1,1,6.51l-2.2,8-5.66.91a10.87,10.87,0,0,1-12-9.72l-3.29-32.44c2.82,4.16,6.48,6.79,10,7.05,5.26.4,11.8-4.24,15.25-12.22Z"/><path class="cls-1" d="M93.71,303.72l-4.28,15.7a17.83,17.83,0,0,0-1-6.51,9.38,9.38,0,0,1-.65-2.88,8.4,8.4,0,0,1,1.56-5.46,7.09,7.09,0,0,1,1.84-1.7,7.71,7.71,0,0,0,2.17-2.56Z"/><ellipse class="cls-1" cx="78.32" cy="316.09" rx="2.23" ry="2.16"/><path class="cls-1" d="M559.26,407.66c.5,2.24,0,3.75-.49,6.27-1.14,5.94-1.45,9-.77,10.84a7.07,7.07,0,0,0,2.71,3.35l6.08.77a10.78,10.78,0,0,0,12-9.37l4.57-37.19c-2.94,5.33-7.16,8.91-11.44,9.3-6.2.58-14.15-5.44-17.56-15.78l-2.13,19.82a45.18,45.18,0,0,0,3.39,5.75C557.51,404.09,558.75,405.24,559.26,407.66Z"/><path class="cls-4" d="M554.36,375.85c3.41,10.34,11.36,16.36,17.56,15.78,4.28-.39,8.5-4,11.44-9.3l34.22-277.81a5.94,5.94,0,0,0-5.18-6.62L595,95.75a10.26,10.26,0,0,0-11.42,8.91Z"/><ellipse class="cls-1" cx="570.24" cy="415.47" rx="2.63" ry="2.17"/><path class="cls-1" d="M558.36,416.9l-6.46.18s1.84-11.32,1.3-13.28a73.21,73.21,0,0,1-1-8.13"/><path class="cls-4" d="M526.27,281c3.45,8,10,12.62,15.25,12.22,3.55-.27,7.21-2.89,10-7.05L577.14,33.34a4,4,0,0,0-3.6-4.3l-15.62-1.45a8.36,8.36,0,0,0-9.06,7.53Z"/><path class="cls-1" d="M524.49,300.31a7.81,7.81,0,0,0,2.17,2.56,7.09,7.09,0,0,1,1.84,1.7,8.4,8.4,0,0,1,1.56,5.46,9.2,9.2,0,0,1-.65,2.87c-.82,2.11-.15,4.37-.15,6.52l2.11,7.75,4.93,1.17a10.87,10.87,0,0,0,12-9.73l3.29-32.43c-2.82,4.16-6.48,6.78-10,7.05-5.26.4-11.8-4.24-15.25-12.22Z"/><ellipse class="cls-1" cx="539.55" cy="316.09" rx="2.23" ry="2.16"/><polygon class="cls-1" points="156.99 4.67 162.82 4.36 156.99 4.69 156.99 4.67"/><path class="cls-1" d="M164,244.23v-.13L151.55,9.37a4.38,4.38,0,0,1,4.15-4.62L157,4.69"/><polygon class="cls-4" points="176.43 265.62 170.59 265.62 170.57 265.33 156.73 4.98 162.57 4.65 176.41 265.33 176.43 265.62"/><path class="cls-1" d="M162.82,4.36l1.3-.06a4.4,4.4,0,0,1,4.62,4.16L180.67,233"/><path class="cls-1" d="M162.79,264.91l-1.25-14.56a11.23,11.23,0,0,1,1.79-3.88c1.22-1.44.53-6.19.53-6.19"/><path class="cls-1" d="M180.67,233c.23,1.71,1,6.41,2,8,1.26,2,3.76,5.75,3.82,8.4s.83,14.63.91,15.89"/><path class="cls-1" d="M187.41,265.41v-.1"/><path class="cls-1" d="M180.67,233c-.06-.4-.08-.62-.08-.62"/><path class="cls-1" d="M431.57,265l1.63-21a10.51,10.51,0,0,0,2.25-1.86,9.9,9.9,0,0,0,1.2-1.59"/><path class="cls-1" d="M436.65,240.51l.1-1.33L451.86,4.62a2.46,2.46,0,0,1,2.56-2.37L465.09,3a2.5,2.5,0,0,1,2.24,2.69L453.6,239.21s.1.5.1.53l.52,2.18"/><path class="cls-1" d="M453.47,240.44l.31,0a15.63,15.63,0,0,0,1.24,3.15,16.64,16.64,0,0,0,1.72,2.63L455.29,265"/><polyline class="cls-4" points="448.61 264.98 450 240.17 463.24 4.15 457.4 3.82 444.18 239.72 442.76 264.98"/><path class="cls-5" d="M335.05,373.08c-.71,7.7-10.24,13.92-22.41,14.81l-6.8,0c-12.23-1.12-21.64-7.63-21.76-15.51l0-.6a2.42,2.42,0,0,1,0-.38l.59-25.6.16-7,.8-34.32.1-4.26c1.85-7.14,11.82-12.6,23.81-12.6a35.4,35.4,0,0,1,12.84,2.3,25.21,25.21,0,0,1,3.35,1.58c4.48,2.52,7.42,6.06,7.85,10l0,1.72s0,.06,0,.08l1.34,67.5Z"/><path class="cls-6" d="M325.77,291.49l-41.06,54.27.16-7,37.55-48.88A25.21,25.21,0,0,1,325.77,291.49Z"/></g></g></svg>