<svg xmlns="http://www.w3.org/2000/svg" viewBox="0 0 367.59 515.05"><defs><style>.cls-1,.cls-7{fill:#303030;}.cls-1,.cls-4{stroke:#532ebc;}.cls-1,.cls-2,.cls-4,.cls-5,.cls-6,.cls-9{stroke-miterlimit:10;}.cls-1{stroke-width:0.37px;}.cls-2,.cls-5,.cls-6{fill:none;}.cls-2{stroke:#cb0b00;stroke-width:0.69px;}.cls-3{fill:#fff;}.cls-4{fill:#757575;stroke-width:0.38px;}.cls-5,.cls-6{stroke:#fff;}.cls-6{stroke-width:0.75px;}.cls-10,.cls-8,.cls-9{fill:#e0e0e0;}.cls-8{opacity:0.23;}.cls-9{stroke:#3700ff;stroke-width:0.96px;}</style></defs><g id="Layer_2" data-name="Layer 2"><g id="Layer_2-2" data-name="Layer 2"><path class="cls-1" d="M120.89,165.45a1,1,0,0,1,0,1.09,1.73,1.73,0,0,1-1.32.68,1.68,1.68,0,0,1-1.32-.68.56.56,0,0,0-.47-.26.51.51,0,0,0-.46.26.55.55,0,0,1-.86,0,1,1,0,0,1,0-1.09,1.62,1.62,0,0,1,2.64,0,.59.59,0,0,0,.47.26.54.54,0,0,0,.46-.26A.55.55,0,0,1,120.89,165.45Z"/><path class="cls-1" d="M121.53,162.6a1.56,1.56,0,0,1-.5.09,1.66,1.66,0,0,1-.93-.32,2.34,2.34,0,0,1-.87-1.42.76.76,0,0,0-.32-.51.51.51,0,0,0-.5-.09c-.34.12-.66-.14-.75-.54a.81.81,0,0,1,.43-.94,1.53,1.53,0,0,1,1.44.23,2.33,2.33,0,0,1,.86,1.42.8.8,0,0,0,.32.51.51.51,0,0,0,.5.09c.34-.11.66.14.75.54A.79.79,0,0,1,121.53,162.6Z"/><path class="cls-1" d="M122.3,156.7a1,1,0,0,0-.06-.65.7.7,0,0,0-.41-.4.75.75,0,0,1-.41-.94.59.59,0,0,1,.73-.54,1.92,1.92,0,0,1,1.13,1.08,2.91,2.91,0,0,1,.19,1.8,1,1,0,0,0,.06.65.7.7,0,0,0,.41.4.82.82,0,0,1,.44.94.65.65,0,0,1-.6.57.32.32,0,0,1-.16,0,1.92,1.92,0,0,1-1.13-1.08A2.91,2.91,0,0,1,122.3,156.7Z"/><path class="cls-1" d="M127.52,156a.91.91,0,0,0-.21.6.79.79,0,0,0,.21.57,1,1,0,0,1,0,1.08.6.6,0,0,1-.44.23.58.58,0,0,1-.43-.23,2.68,2.68,0,0,1-.54-1.65,2.6,2.6,0,0,1,.54-1.65.91.91,0,0,0,.21-.6.79.79,0,0,0-.21-.57.93.93,0,0,1,0-1.08.54.54,0,0,1,.87,0,2.79,2.79,0,0,1,0,3.3Z"/><path class="cls-1" d="M226.39,1.24.19,266.84V90.09A68.9,68.9,0,0,1,59.28,21.9L203.68,1.1A76.65,76.65,0,0,1,216.79.34l1.71.07A73.2,73.2,0,0,1,226.39,1.24Z"/><path class="cls-1" d="M122,177.85.19,319.39v-9.5L117.81,173a.86.86,0,0,1-.17-.74,2.27,2.27,0,0,1,.86-1.43,1.55,1.55,0,0,1,1.39-.24l2.84-3.31a7.15,7.15,0,0,1-.11-1.24c0-3.08,2-5.58,4.46-5.58a3.57,3.57,0,0,1,1.3.24l1.41-1.64a2.86,2.86,0,0,1,.18-1.79,2,2,0,0,1,1.14-1.09.67.67,0,0,0,.41-.4.94.94,0,0,0,.07-.62.79.79,0,0,1,.43-.94c.32-.12.66.14.75.54a2.47,2.47,0,0,1,.06.76l122.83-143c.73.47,1.44.95,2.15,1.45.55.38,1.1.77,1.64,1.18h0l1.61,1.22L131.49,166.85c-.31,2.54-2,4.51-4.05,4.71l-4.85,5.64h0a.7.7,0,0,1-.43.61.17.17,0,0,1-.12,0Z"/><path class="cls-1" d="M290.31,76.15V445.76a68.69,68.69,0,0,1-35.06,60,68.7,68.7,0,0,1-30,8.8c-1.24.08-2.48.11-3.73.11a69.44,69.44,0,0,1-17.27-2.2L57.16,474.74a75.84,75.84,0,0,1-57-73.44V324.19l126-145.78a2.52,2.52,0,0,1-.1-.73,2.64,2.64,0,0,1,.54-1.66.91.91,0,0,0,.21-.59.86.86,0,0,0-.21-.6,1,1,0,0,1,0-1.09.56.56,0,0,1,.87,0,2.82,2.82,0,0,1,.3,2.8l2.34-2.69a.83.83,0,0,1-.37-.9c.09-.4.44-.66.75-.54a1.58,1.58,0,0,1,.58.32l1.59-1.84a.71.71,0,0,1-.5-.56.8.8,0,0,1,.43-1,1.49,1.49,0,0,1,1.27.13l2-2.36a1.79,1.79,0,0,1-.87-.61.56.56,0,0,0-.95,0,.56.56,0,0,1-.87,0,1,1,0,0,1,0-1.09,1.7,1.7,0,0,1,1.32-.68,1.67,1.67,0,0,1,1.32.68.57.57,0,0,0,1,0,.55.55,0,0,1,.69-.15L264.14,18.86l1.3,1.15a6.11,6.11,0,0,1,.47.43l1,.95a5,5,0,0,1,.4.4c.39.37.76.74,1.14,1.12.89.9,1.76,1.83,2.61,2.78.5.55,1,1.12,1.47,1.69.3.36.61.73.9,1.1.16.18.31.37.45.55.33.42.66.84,1,1.27a1.63,1.63,0,0,1,.17.22c.32.42.64.85.95,1.28,1.21,1.67,2.36,3.39,3.42,5.16.35.57.68,1.15,1,1.72s.66,1.17,1,1.75c.52,1,1,2,1.5,3,.17.35.34.7.5,1.06l.63,1.4c.26.61.52,1.22.77,1.84a0,0,0,0,1,0,0c.22.54.44,1.09.65,1.65.07.17.13.35.2.53l.54,1.52c.47,1.36.9,2.75,1.29,4.15.17.58.32,1.17.47,1.75.35,1.35.66,2.73.93,4.11.13.67.26,1.36.37,2,.09.51.17,1,.24,1.54.13.87.24,1.74.34,2.62.08.7.15,1.4.2,2.1s.11,1.41.15,2.12.06,1.19.08,1.78c0,.17,0,.33,0,.5C290.3,74.8,290.31,75.48,290.31,76.15Z"/><line class="cls-2" x1="221.55" y1="514.7" x2="219.85" y2="514.7"/><line class="cls-2" x1="305.29" y1="514.7" x2="298.65" y2="514.7"/><path class="cls-1" d="M367.41,76.15V445.76a69,69,0,0,1-68.76,68.94H273.21A69,69,0,0,0,342,445.76V76.15A75.81,75.81,0,0,0,268.45.34H289.7A75.83,75.83,0,0,1,367.41,76.15Z"/><path class="cls-1" d="M342,76.15V445.76a69,69,0,0,1-68.76,68.94h-44a67.79,67.79,0,0,0,21.61-3.53,69,69,0,0,0,47.15-65.41V76.15a75.8,75.8,0,0,0-46.1-69.78A73.08,73.08,0,0,0,242.16,3,75.15,75.15,0,0,0,224.4.34h44A75.81,75.81,0,0,1,342,76.15Z"/><path class="cls-2" d="M229.16,514.7h-7.61c1.25,0,2.49,0,3.73-.11S227.87,514.7,229.16,514.7Z"/><line class="cls-2" x1="290.31" y1="0.34" x2="289.7" y2="0.34"/><path class="cls-3" d="M88.3,300l.11-5.48,4.8-6.72C104.75,272,110,263.55,110.26,253.59c.14-6.71-1.9-13-8.46-13.08-4-.08-7.36,2.9-9.43,5.4l-1.77-6.34c3.12-3.8,7.5-6.55,12.57-6.45,9.46.19,13.25,10,13.06,19.47-.25,12.19-6.32,21.93-15.85,35.15l-3.62,4.81v.2l19.73.4-.15,7.42Z"/><path class="cls-3" d="M152.84,267.56c-.46,22.45-6.25,34.74-16,34.54-8.58-.17-14.15-12.38-13.84-34.23.45-22.14,7-34.21,16-34C148.24,234,153.26,246.53,152.84,267.56ZM129,268.1c-.34,17.17,3,27,8.38,27.1,6.08.12,9.2-10.49,9.54-27.35.33-16.26-2.22-27-8.37-27.11C133.3,240.64,129.33,250.11,129,268.1Z"/><path class="cls-3" d="M175.6,245.36c-.17,8.22-4.67,13.52-9.33,13.43-5.27-.11-8.74-6.18-8.59-13.29.09-7.82,4.26-13.63,9.26-13.53C172.48,232.08,175.74,238.45,175.6,245.36Zm-14.27.22c-.1,4.67,2.13,8.37,5.1,8.43s5.41-3.65,5.51-8.63c.08-3.76-1.31-8.56-5.16-8.64C163.26,236.67,161.42,241.21,161.33,245.58Z"/><path class="cls-4" d="M297.92,76.15V445.76a69,69,0,0,1-47.15,65.41,67.79,67.79,0,0,1-21.61,3.53c-1.29,0-2.58,0-3.88-.11a68.7,68.7,0,0,0,30-8.8,68.69,68.69,0,0,0,35.06-60V76.15c0-.68,0-1.35,0-2,0-.17,0-.33,0-.5,0-.59,0-1.19-.08-1.78s-.09-1.42-.15-2.12-.12-1.4-.2-2.1c-.1-.88-.21-1.75-.34-2.62-.07-.51-.15-1-.24-1.54-.11-.68-.24-1.36-.37-2-.27-1.38-.58-2.76-.93-4.11-.15-.59-.3-1.17-.47-1.75-.39-1.4-.82-2.79-1.29-4.15l-.54-1.52c-.07-.18-.13-.36-.2-.53-.21-.55-.42-1.1-.65-1.65a0,0,0,0,0,0,0c-.25-.61-.5-1.23-.77-1.84s-.41-.94-.63-1.4-.33-.71-.5-1.06c-.47-1-1-2-1.5-3-.31-.59-.63-1.17-1-1.75s-.66-1.15-1-1.72c-1.06-1.77-2.21-3.49-3.42-5.16-.3-.43-.62-.86-.95-1.28a1.63,1.63,0,0,0-.17-.22c-.31-.43-.64-.85-1-1.27-.14-.18-.29-.37-.45-.55-.29-.37-.59-.74-.9-1.1-.48-.57-1-1.14-1.47-1.69-.84-1-1.71-1.88-2.61-2.78-.37-.39-.75-.76-1.14-1.12a5,5,0,0,0-.4-.4c-.34-.33-.68-.65-1-.95a6.11,6.11,0,0,0-.47-.43c-.43-.4-.86-.79-1.3-1.15s-1-.87-1.52-1.29-1-.84-1.55-1.25l-1.61-1.22h0c-.54-.41-1.09-.8-1.64-1.18-.71-.5-1.42-1-2.15-1.45a75.6,75.6,0,0,0-11.45-6.1,73.61,73.61,0,0,0-7.15-2.64,74.54,74.54,0,0,0-10.67-2.49A73.2,73.2,0,0,0,218.5.41c.58,0,1.15-.06,1.72-.07h4.18c.61,0,1.22,0,1.83.08l.82,0c1.29.08,2.58.2,3.86.35l1,.13c.42,0,.83.1,1.23.16l1,.16c.31,0,.62.09.92.15l1.11.2c.32,0,.63.12.95.19s.81.16,1.21.25l.47.11c.5.1,1,.22,1.48.34l1.87.49a73.08,73.08,0,0,1,9.66,3.37c1.68.72,3.32,1.5,4.94,2.33l1.48.78c.56.3,1.12.62,1.67.94.93.53,1.85,1.09,2.75,1.66l1.32.86h0a3.87,3.87,0,0,1,.37.24c1,.66,2,1.34,2.91,2.06.41.29.81.6,1.21.91.64.5,1.28,1,1.9,1.52l.72.61c1.54,1.29,3,2.65,4.43,4.06.28.27.54.54.81.81.55.55,1.08,1.11,1.6,1.68s.79.87,1.18,1.32c.76.86,1.49,1.73,2.2,2.62.35.43.68.86,1,1.29.19.23.37.47.53.7.43.57.85,1.15,1.26,1.73a.18.18,0,0,1,.05.07c.43.6.84,1.21,1.25,1.83l.29.43c.39.61.79,1.23,1.17,1.86.2.33.4.66.59,1,1.06,1.79,2.05,3.62,3,5.5.16.32.32.65.46,1,.59,1.26,1.15,2.53,1.66,3.82.3.75.58,1.49.86,2.25s.46,1.3.67,2c.15.42.29.84.42,1.27.31,1,.61,2,.88,3,.21.81.42,1.62.61,2.43a.29.29,0,0,0,0,.09c.18.8.35,1.6.51,2.41.22,1.1.41,2.22.57,3.34.07.39.12.79.17,1.18s.12.91.17,1.37c0,0,0,.09,0,.13.05.46.1.91.14,1.37s.07.69.09,1,0,.58.07.87C297.86,72.51,297.92,74.32,297.92,76.15Z"/><path class="cls-3" d="M204.1,267.17l-14.38-.47a4.29,4.29,0,0,1-4.15-4.28h0a4.28,4.28,0,0,1,4.18-4.28l14.38-.37a4.28,4.28,0,0,1,4.39,4.28v.84A4.28,4.28,0,0,1,204.1,267.17Z"/><circle class="cls-5" cx="197.05" cy="149.19" r="0.34"/><circle class="cls-5" cx="197.05" cy="155.64" r="0.44"/><circle class="cls-5" cx="197.05" cy="162.09" r="0.55"/><circle class="cls-5" cx="197.05" cy="168.54" r="0.66"/><circle class="cls-5" cx="197.05" cy="174.98" r="0.76"/><circle class="cls-5" cx="197.05" cy="181.43" r="0.87"/><circle class="cls-5" cx="197.05" cy="187.88" r="0.97"/><circle class="cls-5" cx="197.05" cy="194.33" r="1.08"/><circle class="cls-5" cx="197.05" cy="200.78" r="1.19"/><circle class="cls-5" cx="197.05" cy="207.23" r="1.29"/><circle class="cls-5" cx="197.05" cy="213.68" r="1.4"/><circle class="cls-5" cx="197.05" cy="220.12" r="1.51"/><circle class="cls-5" cx="197.05" cy="226.57" r="1.61"/><circle class="cls-5" cx="197.05" cy="233.02" r="1.72"/><circle class="cls-5" cx="197.05" cy="239.47" r="1.83"/><circle class="cls-5" cx="197.05" cy="245.92" r="1.93"/><circle class="cls-5" cx="197.05" cy="252.37" r="2.04"/><circle class="cls-6" cx="197.05" cy="375.77" r="0.34"/><circle class="cls-6" cx="197.05" cy="369.33" r="0.44"/><circle class="cls-6" cx="197.05" cy="362.88" r="0.55"/><circle class="cls-6" cx="197.05" cy="356.43" r="0.66"/><circle class="cls-6" cx="197.05" cy="349.98" r="0.76"/><circle class="cls-6" cx="197.05" cy="343.53" r="0.87"/><circle class="cls-6" cx="197.05" cy="337.08" r="0.97"/><circle class="cls-6" cx="197.05" cy="330.63" r="1.08"/><circle class="cls-6" cx="197.05" cy="324.19" r="1.19"/><circle class="cls-6" cx="197.05" cy="317.74" r="1.29"/><circle class="cls-6" cx="197.05" cy="311.29" r="1.4"/><circle class="cls-6" cx="197.05" cy="304.84" r="1.51"/><circle class="cls-6" cx="197.05" cy="298.39" r="1.61"/><circle class="cls-6" cx="197.05" cy="291.94" r="1.72"/><circle class="cls-6" cx="197.05" cy="285.49" r="1.83"/><circle class="cls-6" cx="197.05" cy="279.05" r="1.93"/><circle class="cls-6" cx="197.05" cy="272.6" r="2.04"/><path class="cls-7" d="M193.56,264.3V264l.41-.4c1-.95,1.44-1.46,1.45-2a.7.7,0,0,0-.77-.77,1.32,1.32,0,0,0-.83.33l-.17-.37a1.71,1.71,0,0,1,1.1-.39,1.1,1.1,0,0,1,1.2,1.13c0,.72-.52,1.3-1.34,2.09l-.32.29H196v.44Z"/><path class="cls-7" d="M199.22,262.31c0,1.32-.49,2.06-1.35,2.06s-1.28-.72-1.29-2,.56-2,1.36-2S199.22,261.07,199.22,262.31Zm-2.11.06c0,1,.31,1.59.79,1.59s.8-.63.8-1.63-.25-1.59-.8-1.59S197.11,261.31,197.11,262.37Z"/><path class="cls-7" d="M201.2,261a.8.8,0,0,1-.8.81.76.76,0,0,1-.78-.78.78.78,0,0,1,.79-.81A.76.76,0,0,1,201.2,261Zm-1.26,0a.47.47,0,0,0,.47.49.51.51,0,0,0,0-1A.49.49,0,0,0,199.94,261Z"/><path class="cls-6" d="M131.55,166a6.11,6.11,0,0,1-.06.86c-.31,2.54-2,4.51-4.05,4.71l-.36,0c-2.12,0-3.9-1.86-4.35-4.35a7.15,7.15,0,0,1-.11-1.24c0-3.08,2-5.58,4.46-5.58a3.57,3.57,0,0,1,1.3.24A5.57,5.57,0,0,1,131.55,166Z"/><path class="cls-6" d="M127.52,157.16a1,1,0,0,1,0,1.08.6.6,0,0,1-.44.23.58.58,0,0,1-.43-.23,2.68,2.68,0,0,1-.54-1.65,2.6,2.6,0,0,1,.54-1.65.91.91,0,0,0,.21-.6.79.79,0,0,0-.21-.57.93.93,0,0,1,0-1.08.54.54,0,0,1,.87,0,2.79,2.79,0,0,1,0,3.3.91.91,0,0,0-.21.6A.79.79,0,0,0,127.52,157.16Z"/><path class="cls-6" d="M124.38,159a.65.65,0,0,1-.6.57.32.32,0,0,1-.16,0,1.92,1.92,0,0,1-1.13-1.08,2.91,2.91,0,0,1-.19-1.8,1,1,0,0,0-.06-.65.7.7,0,0,0-.41-.4.75.75,0,0,1-.41-.94.59.59,0,0,1,.73-.54,1.92,1.92,0,0,1,1.13,1.08,2.91,2.91,0,0,1,.19,1.8,1,1,0,0,0,.06.65.7.7,0,0,0,.41.4A.82.82,0,0,1,124.38,159Z"/><path class="cls-6" d="M121.53,162.6a1.56,1.56,0,0,1-.5.09,1.66,1.66,0,0,1-.93-.32,2.34,2.34,0,0,1-.87-1.42.76.76,0,0,0-.32-.51.51.51,0,0,0-.5-.09c-.34.12-.66-.14-.75-.54a.81.81,0,0,1,.43-.94,1.53,1.53,0,0,1,1.44.23,2.33,2.33,0,0,1,.86,1.42.8.8,0,0,0,.32.51.51.51,0,0,0,.5.09c.34-.11.66.14.75.54A.79.79,0,0,1,121.53,162.6Z"/><path class="cls-6" d="M120.89,166.54a1.73,1.73,0,0,1-1.32.68,1.68,1.68,0,0,1-1.32-.68.56.56,0,0,0-.47-.26.51.51,0,0,0-.46.26.55.55,0,0,1-.86,0,1,1,0,0,1,0-1.09,1.62,1.62,0,0,1,2.64,0,.59.59,0,0,0,.47.26.54.54,0,0,0,.46-.26.55.55,0,0,1,.86,0A1,1,0,0,1,120.89,166.54Z"/><path class="cls-6" d="M121.94,170.33a2.27,2.27,0,0,1-.86,1.42,1.57,1.57,0,0,1-1.44.23.54.54,0,0,0-.5.08.85.85,0,0,0-.32.52.65.65,0,0,1-.59.57.32.32,0,0,1-.16,0,.56.56,0,0,1-.26-.17.86.86,0,0,1-.17-.74,2.27,2.27,0,0,1,.86-1.43,1.55,1.55,0,0,1,1.39-.24h0a.54.54,0,0,0,.5-.08.85.85,0,0,0,.32-.52.63.63,0,0,1,.75-.54A.77.77,0,0,1,121.94,170.33Z"/><path class="cls-6" d="M124.19,174.77a2,2,0,0,1-1.13,1.08.67.67,0,0,0-.41.4,1,1,0,0,0-.07.63.87.87,0,0,1,0,.32h0a.7.7,0,0,1-.43.61.17.17,0,0,1-.12,0h0a.65.65,0,0,1-.6-.57,2.89,2.89,0,0,1,.19-1.8,2,2,0,0,1,1.13-1.08.67.67,0,0,0,.41-.4.91.91,0,0,0,.07-.63.82.82,0,0,1,.43-.94c.32-.11.66.12.76.55A2.87,2.87,0,0,1,124.19,174.77Z"/><path class="cls-6" d="M128.06,175.4a2.71,2.71,0,0,1-.24,1.14h0a2.1,2.1,0,0,1-.29.5.91.91,0,0,0-.21.6.86.86,0,0,0,.21.6,1,1,0,0,1,0,1.08.6.6,0,0,1-.44.23.58.58,0,0,1-.43-.23,2.38,2.38,0,0,1-.44-.92,2.52,2.52,0,0,1-.1-.73,2.64,2.64,0,0,1,.54-1.66.91.91,0,0,0,.21-.59.86.86,0,0,0-.21-.6,1,1,0,0,1,0-1.09.56.56,0,0,1,.87,0A2.71,2.71,0,0,1,128.06,175.4Z"/><path class="cls-6" d="M132.77,177.25a.64.64,0,0,1-.59.57.32.32,0,0,1-.16,0,1.92,1.92,0,0,1-1.13-1.08,2.84,2.84,0,0,1-.19-1.8.9.9,0,0,0-.07-.62.66.66,0,0,0-.4-.4l-.07,0a.83.83,0,0,1-.37-.9c.09-.4.44-.66.75-.54a1.58,1.58,0,0,1,.58.32,2.09,2.09,0,0,1,.56.76,2.84,2.84,0,0,1,.18,1.79,1.13,1.13,0,0,0,.07.66.7.7,0,0,0,.41.4A.75.75,0,0,1,132.77,177.25Z"/><path class="cls-6" d="M136.07,173.12a1.53,1.53,0,0,1-.5.08,1.69,1.69,0,0,1-.93-.31,2.36,2.36,0,0,1-.86-1.42.85.85,0,0,0-.32-.52.53.53,0,0,0-.5-.08.54.54,0,0,1-.25,0,.71.71,0,0,1-.5-.56.8.8,0,0,1,.43-1,1.49,1.49,0,0,1,1.27.13l.16.1a2.44,2.44,0,0,1,.87,1.43.76.76,0,0,0,.32.51.55.55,0,0,0,.5.09c.34-.12.66.14.75.54A.81.81,0,0,1,136.07,173.12Z"/><path class="cls-6" d="M137.71,166.54a1.73,1.73,0,0,1-1.32.68,1.41,1.41,0,0,1-.45-.07,1.79,1.79,0,0,1-.87-.61.56.56,0,0,0-.95,0,.56.56,0,0,1-.87,0,1,1,0,0,1,0-1.09,1.7,1.7,0,0,1,1.32-.68,1.67,1.67,0,0,1,1.32.68.57.57,0,0,0,1,0,.55.55,0,0,1,.69-.15.8.8,0,0,1,.17.15A.89.89,0,0,1,137.71,166.54Z"/><path class="cls-6" d="M132.22,161.67a.83.83,0,0,0,.44.94.41.41,0,0,0,.16,0,.64.64,0,0,0,.59-.57.81.81,0,0,1,.32-.51.54.54,0,0,1,.5-.08,1.54,1.54,0,0,0,1.43-.23,2.35,2.35,0,0,0,.87-1.43.77.77,0,0,0-.44-.91.59.59,0,0,0-.72.54.85.85,0,0,1-.32.52.59.59,0,0,1-.53.08,1.55,1.55,0,0,0-1.43.23A2.17,2.17,0,0,0,132.22,161.67Z"/><path class="cls-6" d="M132.83,155.47a2.77,2.77,0,0,1-.24,1,2,2,0,0,1-1.14,1.09.7.7,0,0,0-.41.4.94.94,0,0,0-.06.62.8.8,0,0,1-.44.94.29.29,0,0,1-.16,0,.67.67,0,0,1-.59-.57,2.86,2.86,0,0,1,.18-1.79,2,2,0,0,1,1.14-1.09.67.67,0,0,0,.41-.4.94.94,0,0,0,.07-.62.79.79,0,0,1,.43-.94c.32-.12.66.14.75.54A2.47,2.47,0,0,1,132.83,155.47Z"/><path class="cls-1" d="M244.21,6.37a73.61,73.61,0,0,0-7.15-2.64,74.54,74.54,0,0,0-10.67-2.49L.19,266.84v43.05L117.81,173a.86.86,0,0,1-.17-.74,2.27,2.27,0,0,1,.86-1.43,1.55,1.55,0,0,1,1.39-.24l2.84-3.31a7.15,7.15,0,0,1-.11-1.24c0-3.08,2-5.58,4.46-5.58a3.57,3.57,0,0,1,1.3.24l1.41-1.64a2.86,2.86,0,0,1,.18-1.79,2,2,0,0,1,1.14-1.09.67.67,0,0,0,.41-.4.94.94,0,0,0,.07-.62.79.79,0,0,1,.43-.94c.32-.12.66.14.75.54a2.47,2.47,0,0,1,.06.76l122.83-143A75.6,75.6,0,0,0,244.21,6.37ZM120.89,166.54a1.73,1.73,0,0,1-1.32.68,1.68,1.68,0,0,1-1.32-.68.56.56,0,0,0-.47-.26.51.51,0,0,0-.46.26.55.55,0,0,1-.86,0,1,1,0,0,1,0-1.09,1.62,1.62,0,0,1,2.64,0,.59.59,0,0,0,.47.26.54.54,0,0,0,.46-.26.55.55,0,0,1,.86,0A1,1,0,0,1,120.89,166.54Zm.64-3.94a1.56,1.56,0,0,1-.5.09,1.66,1.66,0,0,1-.93-.32,2.34,2.34,0,0,1-.87-1.42.76.76,0,0,0-.32-.51.51.51,0,0,0-.5-.09c-.34.12-.66-.14-.75-.54a.81.81,0,0,1,.43-.94,1.53,1.53,0,0,1,1.44.23,2.33,2.33,0,0,1,.86,1.42.8.8,0,0,0,.32.51.51.51,0,0,0,.5.09c.34-.11.66.14.75.54A.79.79,0,0,1,121.53,162.6Zm2.85-3.56a.65.65,0,0,1-.6.57.32.32,0,0,1-.16,0,1.92,1.92,0,0,1-1.13-1.08,2.91,2.91,0,0,1-.19-1.8,1,1,0,0,0-.06-.65.7.7,0,0,0-.41-.4.75.75,0,0,1-.41-.94.59.59,0,0,1,.73-.54,1.92,1.92,0,0,1,1.13,1.08,2.91,2.91,0,0,1,.19,1.8,1,1,0,0,0,.06.65.7.7,0,0,0,.41.4A.82.82,0,0,1,124.38,159Zm3.14-1.88a1,1,0,0,1,0,1.08.6.6,0,0,1-.44.23.58.58,0,0,1-.43-.23,2.68,2.68,0,0,1-.54-1.65,2.6,2.6,0,0,1,.54-1.65.91.91,0,0,0,.21-.6.79.79,0,0,0-.21-.57.93.93,0,0,1,0-1.08.54.54,0,0,1,.87,0,2.79,2.79,0,0,1,0,3.3.91.91,0,0,0-.21.6A.79.79,0,0,0,127.52,157.16Z"/><path class="cls-8" d="M244.21,6.37a73.61,73.61,0,0,0-7.15-2.64,74.54,74.54,0,0,0-10.67-2.49L.19,266.84v43.05L117.81,173a.86.86,0,0,1-.17-.74,2.27,2.27,0,0,1,.86-1.43,1.55,1.55,0,0,1,1.39-.24l2.84-3.31a7.15,7.15,0,0,1-.11-1.24c0-3.08,2-5.58,4.46-5.58a3.57,3.57,0,0,1,1.3.24l1.41-1.64a2.86,2.86,0,0,1,.18-1.79,2,2,0,0,1,1.14-1.09.67.67,0,0,0,.41-.4.94.94,0,0,0,.07-.62.79.79,0,0,1,.43-.94c.32-.12.66.14.75.54a2.47,2.47,0,0,1,.06.76l122.83-143A75.6,75.6,0,0,0,244.21,6.37ZM120.89,166.54a1.73,1.73,0,0,1-1.32.68,1.68,1.68,0,0,1-1.32-.68.56.56,0,0,0-.47-.26.51.51,0,0,0-.46.26.55.55,0,0,1-.86,0,1,1,0,0,1,0-1.09,1.62,1.62,0,0,1,2.64,0,.59.59,0,0,0,.47.26.54.54,0,0,0,.46-.26.55.55,0,0,1,.86,0A1,1,0,0,1,120.89,166.54Zm.64-3.94a1.56,1.56,0,0,1-.5.09,1.66,1.66,0,0,1-.93-.32,2.34,2.34,0,0,1-.87-1.42.76.76,0,0,0-.32-.51.51.51,0,0,0-.5-.09c-.34.12-.66-.14-.75-.54a.81.81,0,0,1,.43-.94,1.53,1.53,0,0,1,1.44.23,2.33,2.33,0,0,1,.86,1.42.8.8,0,0,0,.32.51.51.51,0,0,0,.5.09c.34-.11.66.14.75.54A.79.79,0,0,1,121.53,162.6Zm2.85-3.56a.65.65,0,0,1-.6.57.32.32,0,0,1-.16,0,1.92,1.92,0,0,1-1.13-1.08,2.91,2.91,0,0,1-.19-1.8,1,1,0,0,0-.06-.65.7.7,0,0,0-.41-.4.75.75,0,0,1-.41-.94.59.59,0,0,1,.73-.54,1.92,1.92,0,0,1,1.13,1.08,2.91,2.91,0,0,1,.19,1.8,1,1,0,0,0,.06.65.7.7,0,0,0,.41.4A.82.82,0,0,1,124.38,159Zm3.14-1.88a1,1,0,0,1,0,1.08.6.6,0,0,1-.44.23.58.58,0,0,1-.43-.23,2.68,2.68,0,0,1-.54-1.65,2.6,2.6,0,0,1,.54-1.65.91.91,0,0,0,.21-.6.79.79,0,0,0-.21-.57.93.93,0,0,1,0-1.08.54.54,0,0,1,.87,0,2.79,2.79,0,0,1,0,3.3.91.91,0,0,0-.21.6A.79.79,0,0,0,127.52,157.16Z"/><path class="cls-9" d="M119.89,170.54,117.81,173a.86.86,0,0,1-.17-.74,2.27,2.27,0,0,1,.86-1.43A1.55,1.55,0,0,1,119.89,170.54Z"/><path class="cls-9" d="M120.89,165.45a1,1,0,0,1,0,1.09,1.73,1.73,0,0,1-1.32.68,1.68,1.68,0,0,1-1.32-.68.56.56,0,0,0-.47-.26.51.51,0,0,0-.46.26.55.55,0,0,1-.86,0,1,1,0,0,1,0-1.09,1.62,1.62,0,0,1,2.64,0,.59.59,0,0,0,.47.26.54.54,0,0,0,.46-.26A.55.55,0,0,1,120.89,165.45Z"/><path class="cls-9" d="M122,161.66a.79.79,0,0,1-.43.94,1.56,1.56,0,0,1-.5.09,1.66,1.66,0,0,1-.93-.32,2.34,2.34,0,0,1-.87-1.42.76.76,0,0,0-.32-.51.51.51,0,0,0-.5-.09c-.34.12-.66-.14-.75-.54a.81.81,0,0,1,.43-.94,1.53,1.53,0,0,1,1.44.23,2.33,2.33,0,0,1,.86,1.42.8.8,0,0,0,.32.51.51.51,0,0,0,.5.09C121.55,161,121.87,161.26,122,161.66Z"/><path class="cls-9" d="M122.49,158.5a2.91,2.91,0,0,1-.19-1.8,1,1,0,0,0-.06-.65.7.7,0,0,0-.41-.4.75.75,0,0,1-.41-.94.59.59,0,0,1,.73-.54,1.92,1.92,0,0,1,1.13,1.08,2.91,2.91,0,0,1,.19,1.8,1,1,0,0,0,.06.65.7.7,0,0,0,.41.4.82.82,0,0,1,.44.94.65.65,0,0,1-.6.57.32.32,0,0,1-.16,0A1.92,1.92,0,0,1,122.49,158.5Z"/><path class="cls-9" d="M126.65,154.94a.91.91,0,0,0,.21-.6.79.79,0,0,0-.21-.57.93.93,0,0,1,0-1.08.54.54,0,0,1,.87,0,2.79,2.79,0,0,1,0,3.3.91.91,0,0,0-.21.6.79.79,0,0,0,.21.57,1,1,0,0,1,0,1.08.6.6,0,0,1-.44.23.58.58,0,0,1-.43-.23,2.68,2.68,0,0,1-.54-1.65A2.6,2.6,0,0,1,126.65,154.94Z"/><path class="cls-9" d="M127.08,160.41a3.57,3.57,0,0,1,1.3.24l-5.65,6.58a7.15,7.15,0,0,1-.11-1.24C122.62,162.91,124.62,160.41,127.08,160.41Z"/><path class="cls-9" d="M132.77,154.71a2.47,2.47,0,0,1,.06.76l-3,3.54a2.86,2.86,0,0,1,.18-1.79,2,2,0,0,1,1.14-1.09.67.67,0,0,0,.41-.4.94.94,0,0,0,.07-.62.79.79,0,0,1,.43-.94C132.34,154.05,132.68,154.31,132.77,154.71Z"/><path class="cls-10" d="M264.14,18.86,137.54,165.3a.55.55,0,0,0-.69.15.57.57,0,0,1-1,0,1.67,1.67,0,0,0-1.32-.68,1.7,1.7,0,0,0-1.32.68,1,1,0,0,0,0,1.09.56.56,0,0,0,.87,0,.56.56,0,0,1,.95,0,1.79,1.79,0,0,0,.87.61l-2,2.36a1.49,1.49,0,0,0-1.27-.13.8.8,0,0,0-.43,1,.71.71,0,0,0,.5.56l-1.59,1.84a1.58,1.58,0,0,0-.58-.32c-.31-.12-.66.14-.75.54a.83.83,0,0,0,.37.9l-2.34,2.69a2.82,2.82,0,0,0-.3-2.8.56.56,0,0,0-.87,0,1,1,0,0,0,0,1.09.86.86,0,0,1,.21.6.91.91,0,0,1-.21.59,2.64,2.64,0,0,0-.54,1.66,2.52,2.52,0,0,0,.1.73L.19,324.19v-4.8L122,177.85h0a.17.17,0,0,0,.12,0,.7.7,0,0,0,.43-.61h0l4.85-5.64c2.07-.2,3.74-2.17,4.05-4.71L261.07,16.32c.52.41,1,.82,1.55,1.25S263.64,18.42,264.14,18.86Z"/><path class="cls-10" d="M122,177.84l.55-.63a.7.7,0,0,1-.43.61A.17.17,0,0,1,122,177.84Z"/><path class="cls-10" d="M127.52,173.74a2.82,2.82,0,0,1,.3,2.8h0l-1.6,1.86a2.52,2.52,0,0,1-.1-.73,2.64,2.64,0,0,1,.54-1.66.91.91,0,0,0,.21-.59.86.86,0,0,0-.21-.6,1,1,0,0,1,0-1.09A.56.56,0,0,1,127.52,173.74Z"/><path class="cls-10" d="M130.54,172.41a1.58,1.58,0,0,1,.58.32l-1,1.12a.83.83,0,0,1-.37-.9C129.88,172.55,130.23,172.29,130.54,172.41Z"/><path class="cls-10" d="M127.44,171.56l4.05-4.71C131.18,169.39,129.51,171.36,127.44,171.56Z"/><path class="cls-10" d="M133.91,169.51l-1.2,1.38a.71.71,0,0,1-.5-.56.8.8,0,0,1,.43-1A1.49,1.49,0,0,1,133.91,169.51Z"/><path class="cls-10" d="M137.54,165.3l-1.6,1.85a1.79,1.79,0,0,1-.87-.61.56.56,0,0,0-.95,0,.56.56,0,0,1-.87,0,1,1,0,0,1,0-1.09,1.7,1.7,0,0,1,1.32-.68,1.67,1.67,0,0,1,1.32.68.57.57,0,0,0,1,0A.55.55,0,0,1,137.54,165.3Z"/></g></g></svg>