<svg xmlns="http://www.w3.org/2000/svg" viewBox="0 0 390.88 282.1"><defs><style>.cls-1{fill:#757575;}.cls-1,.cls-10,.cls-11,.cls-12,.cls-13,.cls-14,.cls-2,.cls-3,.cls-4,.cls-5,.cls-6,.cls-7,.cls-8,.cls-9{stroke:#532ebc;stroke-miterlimit:10;}.cls-1,.cls-12,.cls-2,.cls-3{stroke-width:0.38px;}.cls-2{fill:#4c4c4c;}.cls-10,.cls-11,.cls-13,.cls-3,.cls-9{fill:none;}.cls-14,.cls-4{fill:#c6c6c6;}.cls-4,.cls-5,.cls-6,.cls-9{stroke-width:0.37px;}.cls-5{fill:#232323;}.cls-6{fill:#303030;}.cls-7{fill:#fff;}.cls-8{fill:#cb0b00;}.cls-10{stroke-width:0.35px;}.cls-11{stroke-width:0.36px;}.cls-12{fill:#3d3d3d;}.cls-13{stroke-width:0.23px;}</style></defs><g id="Layer_2" data-name="Layer 2"><g id="Layer_2-2" data-name="Layer 2"><path class="cls-1" d="M390.69,112.72a68.66,68.66,0,0,1-6.24,28.33c-21.79,48.44-98.15,84.21-189,84.21-64.39,0-121.51-18-157.07-45.69l27.8-8.35c30.09,22.13,76.91,36.36,129.49,36.36,28.27,0,54.88-4.11,78.11-11.35,28.89-9,52.57-22.85,67.77-39.65,11.85-13.08,18.54-28,18.54-43.74,0-30.09-24.34-56.9-62.31-74.25L305.32,29l5.55-7C359.27,42.43,390.69,75.46,390.69,112.72Z"/><path class="cls-1" d="M305.32,19.69,292,36.07c-27.07-11.31-60.35-18-96.34-18-90.8,0-164.41,42.42-164.41,94.74,0,20.8,11.63,40,31.36,55.66l-27.74,8.26C22,166.06,12.26,154,6.43,141.05A68.66,68.66,0,0,1,.19,112.72C.19,50.57,87.61.19,195.44.19,236.19.19,274,7.38,305.32,19.69Z"/><path class="cls-2" d="M6.43,141.05A68.66,68.66,0,0,1,.19,112.72v52.74C1.18,172,3,180.83,6,186.88a128.27,128.27,0,0,0,28.1,35.87l.77-46C22,166.06,12.26,154,6.43,141.05Zm21.15,60.44c-2.4,1.52-6.46-.59-9.08-4.72s-2.79-8.7-.4-10.22,6.46.59,9.08,4.72S30,200,27.58,201.49Z"/><path class="cls-3" d="M27.58,201.49c-2.4,1.52-6.46-.59-9.08-4.72s-2.79-8.7-.4-10.22,6.46.59,9.08,4.72S30,200,27.58,201.49Z"/><path class="cls-3" d="M390.69,135.78v33.59c0,.19,0,.38,0,.57h0A129.16,129.16,0,0,1,371,207.58c-11.51,14.76-21.72,21.07-40.47,32s-71.85,33.78-148.15,31.18c-62.64-2.13-102.5-20-125.14-32.73-.12-4.11.69-12.73,9-15.31,11.09-3.43,23.61,1.95,27.79,3.18s40.31,13,60.26,14.06,59.65,3.46,77.77,0,63.74-6.4,104.93-33.19,42.84-40.11,46.85-49.4C386.62,151,389.29,141.25,390.69,135.78Z"/><path class="cls-2" d="M390.69,112.72v23.06c-1.4,5.47-4.07,15.23-6.83,21.62-4,9.29-5.65,22.6-46.85,49.4S250.2,236.53,232.08,240s-57.82,1-77.77,0-56.09-12.83-60.26-14.06-16.7-6.61-27.79-3.18c-8.35,2.58-9.16,11.2-9,15.31-4.94-2.77-9.06-5.3-12.42-7.36a74.8,74.8,0,0,1-7.15-5l.4-46,.32-.1c35.56,27.72,92.68,45.69,157.07,45.69,90.86,0,167.22-35.77,189-84.21A68.66,68.66,0,0,0,390.69,112.72Z"/><path class="cls-4" d="M390.68,170c-.54,61.88-87.74,112-195.24,112-64.88,0-122.38-18.25-157.88-46.31l.09-9.91a74.8,74.8,0,0,0,7.15,5c3.36,2.06,7.48,4.59,12.42,7.36,22.64,12.71,62.5,30.6,125.14,32.73,76.3,2.6,129.4-20.23,148.15-31.18s29-17.27,40.47-32A129.16,129.16,0,0,0,390.68,170Z"/><path class="cls-5" d="M305.32,19.69V29l-7.55,9.59c-1.89-.87-3.81-1.72-5.77-2.52Z"/><path class="cls-6" d="M360.08,112.84c0,15.78-6.69,30.66-18.54,43.74l-17.14-6.42a14.21,14.21,0,0,0-11.78.85c-6.7,3.67-17,9.31-21,11.62-4.79,2.71-22.21,13.81-29.29,18.35a2.85,2.85,0,0,0-.37,4.52l11.85,10.73c-23.23,7.24-49.84,11.35-78.11,11.35-52.58,0-99.4-14.23-129.49-36.36-1.22-.9-2.4-1.8-3.56-2.72-19.73-15.63-31.36-34.86-31.36-55.66,0-52.32,73.61-94.74,164.41-94.74,36,0,69.27,6.66,96.34,18,2,.8,3.88,1.65,5.77,2.52C335.74,55.94,360.08,82.75,360.08,112.84Z"/><polyline class="cls-5" points="33.93 232.62 34.87 176.76 62.61 168.5 66.17 171.22 38.05 179.67 37.56 231.56 33.93 232.62"/><path class="cls-7" d="M341.54,156.58c-15.2,16.8-38.88,30.64-67.77,39.65L261.92,185.5a2.85,2.85,0,0,1,.37-4.52c7.08-4.54,24.5-15.64,29.29-18.35,4.06-2.31,14.34-7.95,21-11.62a14.21,14.21,0,0,1,11.78-.85Z"/><path class="cls-8" d="M289.42,173.81a.49.49,0,0,1-.43-.26.49.49,0,0,1,.18-.68l14.17-8.1a.5.5,0,1,1,.5.86l-14.17,8.11A.55.55,0,0,1,289.42,173.81Z"/><path class="cls-8" d="M294.12,174.64a.5.5,0,0,1-.25-.93l10.23-5.91a.5.5,0,0,1,.5.86l-10.23,5.91A.47.47,0,0,1,294.12,174.64Z"/><path class="cls-8" d="M299.23,175.4a.5.5,0,0,1-.41-.22.51.51,0,0,1,.13-.7l6.09-4.09a.5.5,0,1,1,.56.83l-6.09,4.09A.47.47,0,0,1,299.23,175.4Z"/><path class="cls-8" d="M303.59,175.4a.5.5,0,0,1-.43-.25.51.51,0,0,1,.18-.69l2.73-1.59a.51.51,0,0,1,.68.18.51.51,0,0,1-.18.69l-2.73,1.59A.55.55,0,0,1,303.59,175.4Z"/><path class="cls-9" d="M27.58,201.49c-2.4,1.52-6.46-.59-9.08-4.72s-2.79-8.7-.4-10.22,6.46.59,9.08,4.72S30,200,27.58,201.49Z"/><path class="cls-4" d="M34.1,222.75l-.17,9.87C12.64,214.59.19,192.81.19,169.37v-3.91C1.18,172,3,180.83,6,186.88A128.27,128.27,0,0,0,34.1,222.75Z"/><path class="cls-2" d="M148.58,63.08a4.77,4.77,0,0,1-.07.76A5.75,5.75,0,0,1,146,67.29l-1.71,1-.08,0-22.44,13-2,1.16h0A18.82,18.82,0,0,1,112,84c-6.22,0-11.35-2.58-12-5.9a3.84,3.84,0,0,1-.08-.76c0-1.69,1.15-3.24,3-4.42.18-.11.36-.22.55-.32L127,59l2-1.16a18.56,18.56,0,0,1,7.57-1.51C143.18,56.29,148.58,59.33,148.58,63.08Z"/><path class="cls-10" d="M121.75,81.28a10.94,10.94,0,0,1-2,1.16Z"/><path class="cls-11" d="M127,59a10.94,10.94,0,0,1,2-1.16Z"/><path class="cls-11" d="M146,67.29a10.08,10.08,0,0,1-1.71,1Z"/><path class="cls-12" d="M148.58,64.59A5.31,5.31,0,0,1,146,68.8l-1.71,1-.08,0-22.44,13-2,1.16h0A18.82,18.82,0,0,1,112,85.47c-6.69,0-12.12-3-12.12-6.66V77.3a3.84,3.84,0,0,0,.08.76c.69,3.32,5.82,5.9,12,5.9a18.82,18.82,0,0,0,7.67-1.51h0l2-1.16,22.44-13,.08,0,1.71-1a5.75,5.75,0,0,0,2.53-3.45A3.74,3.74,0,0,1,148.58,64.59Z"/><path class="cls-1" d="M119.13,76.34a1.83,1.83,0,0,1,0,.47c-.38,2.11-3.37,3.75-7,3.75s-6.62-1.64-7-3.75a1.83,1.83,0,0,1,0-.47c0-2.33,3.15-4.22,7-4.22S119.13,74,119.13,76.34Z"/><path class="cls-6" d="M119.13,77.27c0,2.33-3.15,4.22-7,4.22s-7-1.89-7-4.22a1.75,1.75,0,0,1,0-.46c.38,2.11,3.37,3.75,7,3.75s6.61-1.64,7-3.75A1.75,1.75,0,0,1,119.13,77.27Z"/><path class="cls-1" d="M143.05,62.14a1.83,1.83,0,0,1-.05.47c-.38,2.11-3.37,3.75-7,3.75s-6.62-1.64-7-3.75a1.83,1.83,0,0,1,0-.47c0-2.33,3.15-4.22,7-4.22S143.05,59.81,143.05,62.14Z"/><path class="cls-6" d="M143.05,63.07c0,2.33-3.15,4.22-7,4.22s-7-1.89-7-4.22a1.75,1.75,0,0,1,0-.46c.38,2.11,3.37,3.75,7,3.75s6.61-1.64,7-3.75A1.75,1.75,0,0,1,143.05,63.07Z"/><path class="cls-2" d="M254,102.72v0a3.26,3.26,0,0,1-1.51,2l-64.84,38.4a14.82,14.82,0,0,1-15,.06l-34.09-19.86a3.28,3.28,0,0,1-1.53-2v0a3.25,3.25,0,0,1,1.51-3.61L203.33,79.3a14.86,14.86,0,0,1,15-.06l34.1,19.86A3.28,3.28,0,0,1,254,102.72Z"/><path class="cls-12" d="M252.48,106.37l-64.84,38.4a14.84,14.84,0,0,1-15,.06L138.52,125a3.26,3.26,0,0,1-1.53-3.63,3.28,3.28,0,0,0,1.53,2l34.09,19.86a14.82,14.82,0,0,0,15-.06l64.84-38.4a3.26,3.26,0,0,0,1.51-2A3.29,3.29,0,0,1,252.48,106.37Z"/><path class="cls-1" d="M195.16,127.74a1.83,1.83,0,0,1,0,.47c-.38,2.11-3.37,3.75-7,3.75s-6.62-1.64-7-3.75a1.83,1.83,0,0,1-.05-.47c0-2.33,3.15-4.22,7.05-4.22S195.16,125.41,195.16,127.74Z"/><path class="cls-6" d="M195.16,128.67c0,2.33-3.15,4.22-7,4.22s-7.05-1.89-7.05-4.22a1.75,1.75,0,0,1,.05-.46c.38,2.11,3.37,3.75,7,3.75s6.61-1.64,7-3.75A1.75,1.75,0,0,1,195.16,128.67Z"/><ellipse class="cls-4" cx="188.04" cy="127.58" rx="6.06" ry="3.45"/><path class="cls-1" d="M213.38,116.48a1.83,1.83,0,0,1,0,.47c-.38,2.11-3.37,3.75-7,3.75s-6.62-1.64-7-3.75a1.83,1.83,0,0,1-.05-.47c0-2.33,3.15-4.22,7.05-4.22S213.38,114.15,213.38,116.48Z"/><path class="cls-6" d="M213.38,117.41c0,2.33-3.15,4.22-7,4.22s-7.05-1.89-7.05-4.22a1.75,1.75,0,0,1,.05-.46c.38,2.11,3.37,3.75,7,3.75s6.61-1.64,7-3.75A1.75,1.75,0,0,1,213.38,117.41Z"/><ellipse class="cls-4" cx="206.26" cy="116.32" rx="6.06" ry="3.45"/><path class="cls-1" d="M232.36,106.09a1.83,1.83,0,0,1-.05.47c-.38,2.11-3.37,3.75-7,3.75s-6.62-1.64-7-3.75a1.83,1.83,0,0,1,0-.47c0-2.33,3.15-4.22,7-4.22S232.36,103.76,232.36,106.09Z"/><path class="cls-6" d="M232.36,107c0,2.33-3.15,4.22-7,4.22s-7-1.89-7-4.22a1.75,1.75,0,0,1,0-.46c.38,2.11,3.37,3.75,7,3.75s6.61-1.64,7-3.75A1.75,1.75,0,0,1,232.36,107Z"/><ellipse class="cls-4" cx="225.24" cy="105.92" rx="6.06" ry="3.45"/><path class="cls-13" d="M223.5,92.7a1.32,1.32,0,0,1-.57.65l-56.31,32.72a5.34,5.34,0,0,1-5.64-.17l-9.1-6a1.22,1.22,0,0,1-.49-.64,1.29,1.29,0,0,1,.55-1.6l55.57-32.52a5.31,5.31,0,0,1,5.43,0l10,5.94A1.32,1.32,0,0,1,223.5,92.7Z"/><path class="cls-13" d="M222.93,94.32,166.62,127a5.34,5.34,0,0,1-5.64-.16l-9.1-6a1.31,1.31,0,0,1-.49-1.6,1.22,1.22,0,0,0,.49.64l9.1,6a5.34,5.34,0,0,0,5.64.17l56.31-32.72a1.32,1.32,0,0,0,.57-.65A1.32,1.32,0,0,1,222.93,94.32Z"/><path class="cls-6" d="M222.4,92.72a1.16,1.16,0,0,1-.53.59l-55.18,31.74a5.1,5.1,0,0,1-5.25-.15L153,119.46a1.1,1.1,0,0,1-.46-.57,1.16,1.16,0,0,1,.51-1.45l54.5-31.56a5,5,0,0,1,5.05,0l9.29,5.36A1.18,1.18,0,0,1,222.4,92.72Z"/><polygon class="cls-14" points="197.08 107.57 198.75 90.97 200.67 89.86 198.75 106.61 197.08 107.57"/><polygon class="cls-14" points="203.17 88.41 201.72 104.9 201.15 105.23 202.7 88.68 203.17 88.41"/><ellipse class="cls-4" cx="112.01" cy="76.18" rx="6.06" ry="3.45"/><ellipse class="cls-4" cx="135.93" cy="61.98" rx="6.06" ry="3.45"/></g></g></svg>